<?xml version="1.0" encoding="UTF-8"?><svg id="Camada_2" xmlns="http://www.w3.org/2000/svg" viewBox="0 0 259.7 79.93"><defs><style>.cls-1,.cls-2,.cls-3{fill:#fff;}.cls-2{letter-spacing:-.01em;}.cls-2,.cls-3{font-family:Raleway-Regular, Raleway;font-size:12.57px;}</style></defs><g id="Camada_1-2"><g><path class="cls-1" d="M259.54,60.89h-2.31v-1.77h2.31v1.77h0Zm.16-8.25c0,.64-.14,1.21-.43,1.72-.29,.5-.68,.9-1.19,1.19h1.46v1.88h-11.71v-2.15h4.88c-.5-.3-.9-.69-1.19-1.18-.29-.49-.43-1.06-.43-1.71,0-.55,.11-1.04,.34-1.49,.23-.45,.54-.84,.94-1.16,.4-.33,.86-.58,1.38-.75,.52-.18,1.07-.26,1.67-.26s1.15,.1,1.67,.3c.52,.2,.98,.47,1.37,.83,.4,.35,.7,.77,.92,1.24,.22,.48,.33,1,.33,1.56h0Zm-1.83,.59c0-.34-.07-.66-.2-.94-.13-.28-.3-.53-.53-.74-.22-.21-.48-.37-.78-.48-.3-.11-.61-.17-.94-.17-.45,0-.87,.09-1.25,.28-.38,.19-.69,.44-.92,.77-.23,.33-.35,.71-.35,1.15,0,.31,.07,.61,.21,.89,.14,.28,.33,.54,.58,.75,.24,.22,.52,.39,.82,.52h1.97c.21-.06,.4-.17,.57-.31,.17-.14,.31-.31,.43-.51,.12-.19,.21-.39,.28-.6,.07-.21,.1-.42,.1-.62h0Zm1.83-9.7c0,.67-.11,1.28-.34,1.83-.23,.55-.54,1.01-.94,1.4-.4,.38-.85,.68-1.36,.89-.51,.21-1.05,.31-1.63,.31-.79,0-1.52-.18-2.17-.54-.66-.36-1.18-.87-1.58-1.54-.4-.67-.6-1.46-.6-2.37s.2-1.71,.6-2.36c.4-.65,.92-1.15,1.57-1.5,.65-.35,1.35-.52,2.11-.52,.13,0,.26,0,.39,.02,.13,.01,.24,.02,.33,.03v6.5c.42-.04,.78-.17,1.1-.38,.32-.21,.55-.48,.71-.8,.16-.33,.24-.68,.24-1.05,0-.43-.1-.83-.31-1.21-.21-.38-.48-.64-.83-.78l.51-1.85c.43,.2,.81,.49,1.14,.87,.33,.38,.59,.83,.78,1.34,.19,.51,.28,1.08,.28,1.7h0Zm-4.99,2.2v-4.4c-.42,.04-.78,.16-1.09,.36-.31,.2-.55,.46-.72,.78-.17,.32-.26,.68-.26,1.08s.08,.73,.26,1.05c.17,.32,.41,.57,.72,.77,.31,.2,.67,.32,1.09,.36h0Zm4.41-12.68c.07,.18,.16,.4,.26,.66,.1,.26,.17,.53,.23,.83,.06,.29,.09,.59,.09,.89,0,.4-.07,.76-.21,1.09-.14,.33-.36,.6-.66,.79-.3,.2-.7,.3-1.18,.3h-4.78v1.11h-1.65v-1.11h-2.73v-2.15h2.73v-1.77h1.65v1.77h4.05c.29-.01,.49-.09,.62-.24,.12-.15,.19-.34,.19-.56s-.04-.44-.11-.66c-.08-.21-.14-.38-.19-.51l1.7-.43h0Z"/><polygon class="cls-1" points="1.12 8.85 18.7 8.85 18.7 47.36 35.87 47.36 35.87 60.99 1.12 60.99 1.12 8.85 1.12 8.85"/><path class="cls-1" d="M80.5,19.5c5.01,0,9.05,1.52,12.1,4.55,.46,.46,.88,.95,1.28,1.47V60.99h-13.53v-20.34c0-4.67-1.66-7-4.99-7-1.89,0-3.41,.66-4.58,1.97-1.17,1.32-1.75,3.39-1.75,6.22v19.15h-16.84V20.24h16.02v4.02c1.59-1.59,3.43-2.78,5.51-3.57,2.09-.8,4.35-1.19,6.78-1.19h0Z"/><polygon class="cls-1" points="114.77 48.48 112.08 51.38 112.08 60.99 95.25 60.99 95.25 5.72 112.08 5.72 112.08 32.09 123.78 20.24 137.44 20.24 137.44 26.78 126.83 37.9 137.44 51.37 137.44 60.99 124.67 60.99 114.77 48.48 114.77 48.48"/><path class="cls-1" d="M145.72,0c4.65,0,8.42,3.77,8.42,8.41s-3.77,8.41-8.42,8.41-8.41-3.77-8.41-8.41,3.77-8.41,8.41-8.41h0Z"/><polygon class="cls-1" points="138.81 20.25 152.63 20.25 152.63 60.99 138.81 60.99 138.81 20.25 138.81 20.25"/><path class="cls-1" d="M44.03,0c4.65,0,8.41,3.77,8.41,8.41s-3.77,8.41-8.41,8.41-8.41-3.77-8.41-8.41S39.38,0,44.03,0h0Z"/><polygon class="cls-1" points="37.24 20.25 50.82 20.25 50.82 60.99 37.24 60.99 37.24 20.25 37.24 20.25"/><path class="cls-1" d="M182.3,19.5c5.02,0,9.05,1.52,12.11,4.55,1.11,1.11,2.03,2.41,2.73,3.93l-.08,.14c-.96,1.6-1.68,3.32-2.16,5.16-.48,1.84-.72,3.78-.72,5.82s.24,3.98,.72,5.83c.48,1.85,1.2,3.58,2.16,5.19,.58,.98,1.23,1.89,1.93,2.73v8.15h-16.84v-20.34c0-4.67-1.66-7-4.99-7-1.89,0-3.41,.66-4.58,1.97-1.17,1.32-1.75,3.39-1.75,6.22v19.15h-16.84V20.24h16.02v4.02c1.59-1.59,3.43-2.78,5.51-3.57,2.09-.8,4.35-1.19,6.78-1.19h0Z"/><path class="cls-1" d="M243.22,20.24V52.87c0,7.75-2.15,13.57-6.44,17.47-4.3,3.9-10.42,5.85-18.36,5.85-4.07,0-7.87-.43-11.4-1.3-3.53-.87-6.53-2.12-9.01-3.76l5.66-11.47c1.59,1.19,3.6,2.16,6.03,2.91,2.43,.75,4.77,1.12,7,1.12,3.38,0,5.84-.72,7.38-2.16,1.54-1.44,2.31-3.55,2.31-6.33v-.74c-2.53,2.88-6.28,4.32-11.25,4.32-3.48,0-6.72-.81-9.72-2.42-3-1.61-5.4-3.92-7.19-6.93-1.79-3-2.68-6.44-2.68-10.32s.89-7.3,2.68-10.28c1.79-2.98,4.18-5.28,7.19-6.89,3-1.61,6.25-2.42,9.72-2.42,5.56,0,9.59,1.79,12.07,5.36v-4.62h16.02Zm-23.61,25.4c1.99,0,3.64-.61,4.95-1.82,1.32-1.22,1.97-2.79,1.97-4.73s-.66-3.5-1.97-4.69c-1.32-1.19-2.97-1.79-4.95-1.79s-3.71,.6-5.03,1.79c-1.32,1.19-1.97,2.76-1.97,4.69s.67,3.51,2.01,4.73c1.34,1.22,3,1.82,4.99,1.82h0Z"/><path class="cls-1" d="M228.47,1.16l-3.59,16.98-.18-.02c-2.88-1.29-6.07-2.01-9.42-2.01-5.68,0-10.88,2.06-14.9,5.47l-8.21-15.3c.22,.09,7.61,3.32,10.9,2.2,2.64-.9,5.46-5.89,6.51-7.93,.09-.17,.16-.32,.22-.44,.09,.1,.21,.22,.34,.36,1.59,1.67,5.69,5.68,8.48,5.81,3.47,.17,9.67-4.98,9.85-5.12h0Z"/><text class="cls-3" transform="translate(0 77.13)"><tspan x="0" y="0">IGAMING </tspan></text><text class="cls-2" transform="translate(56.66 77.13)"><tspan x="0" y="0">BA</tspan></text><text class="cls-3" transform="translate(73 77.13)"><tspan x="0" y="0">CKLINK</tspan></text><text class="cls-3" transform="translate(120.59 77.13)"><tspan x="0" y="0">A</tspan></text><text class="cls-3" transform="translate(128.71 77.13)"><tspan x="0" y="0">UTHORITY</tspan></text></g></g></svg>