<?xml version="1.0" encoding="UTF-8"?><svg id="Camada_2" xmlns="http://www.w3.org/2000/svg" viewBox="0 0 257.95 51.34"><defs><style>.cls-1{fill:none;}.cls-2{fill:#f2f2f2;}.cls-3{fill:#fff;}</style></defs><g id="Camada_1-2"><g><polygon class="cls-3" points="0 7.37 14.62 7.37 14.62 36.11 34.19 36.11 34.19 39.39 34.19 50.72 2.97 50.72 0 50.72 0 7.37 0 7.37"/><path class="cls-2" d="M30.64,16.85h14V50.72h-14V16.85h0ZM37.29,0c3.87,0,7,3.13,7,7s-3.13,7-7,7-7-3.13-7-7,3.13-7,7-7h0Z"/><path class="cls-3" d="M67.23,16.23c4.17,0,7.52,1.26,10.06,3.78,2.54,2.52,3.81,6.32,3.81,11.4v19.32h-14v-16.91c0-3.88-1.38-5.82-4.15-5.82-1.57,0-2.84,.55-3.81,1.64-.97,1.09-1.45,2.82-1.45,5.17v15.92h-14V16.85h13.32v3.34c1.32-1.32,2.85-2.31,4.58-2.97,1.73-.66,3.61-.99,5.64-.99h0Z"/><polygon class="cls-2" points="96.25 40.32 94.02 42.73 94.02 50.72 80.03 50.72 80.03 7 94.02 7 94.02 26.69 103.75 16.85 120.28 16.85 106.29 31.52 121.4 50.72 104.49 50.72 96.25 40.32 96.25 40.32"/><path class="cls-3" d="M131.6,16.23c5.95,0,10.49,1.33,13.62,4,3.14,2.66,4.71,6.76,4.71,12.29v18.21h-13.01v-4.46c-1.61,3.39-4.81,5.08-9.6,5.08-2.68,0-4.96-.46-6.84-1.39-1.88-.93-3.3-2.19-4.27-3.78-.97-1.59-1.46-3.37-1.46-5.36,0-3.34,1.28-5.88,3.84-7.62,2.56-1.73,6.44-2.6,11.64-2.6h5.64c-.45-2.64-2.58-3.96-6.38-3.96-1.53,0-3.08,.24-4.64,.71-1.57,.47-2.91,1.13-4.03,1.95l-4.46-9.23c1.94-1.2,4.28-2.14,7.03-2.82,2.75-.68,5.48-1.02,8.21-1.02h0Zm-.06,26.69c.99,0,1.88-.27,2.66-.81,.78-.54,1.36-1.34,1.73-2.42v-2.35h-3.47c-2.85,0-4.27,.95-4.27,2.85,0,.78,.3,1.43,.9,1.95,.6,.52,1.41,.77,2.45,.77h0Z"/><path class="cls-2" d="M162.07,19.11c2.48-2.85,6.24-2.26,11.07-2.26v12.39c-1.11-.17-2.15-.25-3.1-.25-4.79,0-7.18,2.44-7.18,7.31v14.43h-14V16.85h13.32l-.11,2.26h0Z"/><path class="cls-3" d="M214.8,16.23c4.09,0,7.36,1.26,9.82,3.78,2.46,2.52,3.68,6.32,3.68,11.4v19.32h-14v-16.91c0-3.88-1.26-5.82-3.78-5.82-1.32,0-2.38,.5-3.19,1.49-.8,.99-1.21,2.56-1.21,4.71v16.54h-14v-16.91c0-3.88-1.26-5.82-3.78-5.82-1.32,0-2.38,.5-3.19,1.49-.8,.99-1.21,2.56-1.21,4.71v16.54h-14V16.85h13.32v3.16c2.52-2.52,5.72-3.78,9.6-3.78,2.27,0,4.31,.42,6.13,1.27,1.82,.85,3.3,2.14,4.46,3.87,1.36-1.65,3.01-2.92,4.95-3.81,1.94-.89,4.07-1.33,6.38-1.33h0Z"/><path class="cls-1" d="M214.8,15.73c2.1,0,4,.33,5.7,.98,1.71,.66,3.2,1.64,4.48,2.95,1.28,1.31,2.24,2.96,2.88,4.93,.63,1.95,.95,4.22,.95,6.81v19.82h-15v-17.41c0-1.84-.29-3.21-.86-4.09-.53-.82-1.34-1.23-2.42-1.23-.59,0-1.11,.11-1.58,.32-.46,.22-.87,.54-1.23,.98-.36,.44-.63,1.02-.81,1.73-.19,.74-.28,1.63-.28,2.66v17.04h-15v-17.41c0-1.84-.29-3.21-.86-4.09-.53-.82-1.34-1.23-2.42-1.23-.59,0-1.11,.11-1.58,.32-.46,.22-.87,.54-1.23,.98-.36,.44-.63,1.02-.81,1.73-.19,.74-.28,1.63-.28,2.66v17.04h-15V16.35h14.32v2.52c1.09-.92,2.29-1.64,3.61-2.16,1.66-.65,3.49-.98,5.49-.98,1.16,0,2.28,.11,3.33,.33,1.06,.22,2.07,.55,3.01,.99,.95,.44,1.81,1,2.59,1.68,.62,.54,1.19,1.15,1.7,1.84,.59-.66,1.23-1.25,1.92-1.78,.86-.66,1.79-1.22,2.79-1.68,1.01-.46,2.06-.8,3.16-1.03,1.1-.23,2.24-.34,3.43-.34h0Z"/><path class="cls-2" d="M257.95,33.75c0,.21-.06,1.3-.19,3.28h-23.53c.5,1.28,1.32,2.26,2.48,2.94,1.16,.68,2.6,1.02,4.34,1.02,1.49,0,2.74-.19,3.75-.56,1.01-.37,2.12-1.01,3.31-1.92l7.31,7.37c-3.3,3.63-8.24,5.45-14.8,5.45-4.09,0-7.68-.75-10.78-2.26-3.1-1.51-5.49-3.6-7.18-6.29-1.69-2.68-2.54-5.7-2.54-9.04s.84-6.41,2.51-9.07c1.67-2.66,3.96-4.74,6.87-6.22,2.91-1.49,6.18-2.23,9.82-2.23,3.43,0,6.55,.68,9.38,2.04,2.83,1.36,5.08,3.36,6.75,6.01,1.67,2.64,2.51,5.8,2.51,9.48h0Zm-18.52-7.99c-1.45,0-2.64,.39-3.59,1.18-.95,.78-1.57,1.9-1.86,3.34h10.9c-.29-1.4-.91-2.51-1.86-3.31-.95-.81-2.15-1.21-3.59-1.21h0Z"/></g></g></svg>